<?xml version="1.0" encoding="utf-8"?>
<!-- Generator: Adobe Illustrator 26.0.2, SVG Export Plug-In . SVG Version: 6.00 Build 0)  -->
<svg version="1.1" id="Layer_1" xmlns="http://www.w3.org/2000/svg" xmlns:xlink="http://www.w3.org/1999/xlink" x="0px" y="0px"
	 viewBox="0 0 262 50" style="enable-background:new 0 0 262 50;" xml:space="preserve">
<style type="text/css">
	.st0{fill:url(#SVGID_1_);}
	.st1{fill:url(#SVGID_00000127031869481425347700000001546677038347440295_);}
	.st2{fill:url(#SVGID_00000089548558825752043330000005631801307644094380_);}
	.st3{fill:#FFFFFF;}
	.st4{fill:#004D8F;}
</style>
<g>
	<g>
		
			<linearGradient id="SVGID_1_" gradientUnits="userSpaceOnUse" x1="251.0567" y1="8.3229" x2="80.3241" y2="5.6341" gradientTransform="matrix(1 0 0 -1 0 49.5)">
			<stop  offset="0" style="stop-color:#22BBFF"/>
			<stop  offset="1" style="stop-color:#FFFFFF"/>
		</linearGradient>
		<path class="st0" d="M66.4,46.6c-5.3,1.5-10.8,2.3-16.3,2.5c-4.3,0.2-8.6-0.2-12.9-0.7c-2.8-0.3-5.5-0.7-8.3-1.3
			c-0.2,0-0.4-0.1-0.5-0.1c0,0-14.1-3.4-17-4.1C8.8,42.2,0,41,0,41s9.5-1.5,21.7-0.5c7.4,0.6,14.8,1.8,22.1,3.1
			c4.3,0.8,8.6,1.7,13,2.2C61.9,46.5,63.4,46.3,66.4,46.6"/>
		
			<linearGradient id="SVGID_00000069390041427912367790000003282633854404597898_" gradientUnits="userSpaceOnUse" x1="251.0402" y1="9.3948" x2="80.3074" y2="6.7061" gradientTransform="matrix(1 0 0 -1 0 49.5)">
			<stop  offset="0" style="stop-color:#22BBFF"/>
			<stop  offset="1" style="stop-color:#FFFFFF"/>
		</linearGradient>
		<path style="fill:url(#SVGID_00000069390041427912367790000003282633854404597898_);" d="M4.8,38.1c0,0,9.8-2.3,24.9-2.3
			c14.8,0,32.5,1.6,42.2,2.7c21.7,2.7,37.6,6.2,62.4,8.1c10.9,0.9,16.4,0.6,16.4,0.6s-23.4,5.2-52.5,1.3c-17.5-2.3-32-5.7-45.9-7.8
			c-14-2.1-19.4-1.8-28.2-2.5C15,37.6,4.8,38.1,4.8,38.1"/>
		
			<linearGradient id="SVGID_00000127023822373737957680000014802070363128293534_" gradientUnits="userSpaceOnUse" x1="250.9518" y1="15.0431" x2="80.2188" y2="12.3544" gradientTransform="matrix(1 0 0 -1 0 49.5)">
			<stop  offset="0" style="stop-color:#22BBFF"/>
			<stop  offset="1" style="stop-color:#FFFFFF"/>
		</linearGradient>
		<path style="fill:url(#SVGID_00000127023822373737957680000014802070363128293534_);" d="M7.2,35.6c0,0,5-1.8,16.2-3.9
			s27.3-2.5,38.9-2.1s33,2.8,33,2.8l29.5,3.7c0,0,18.3,2.3,26.3,2.7s15-0.4,18.8-1.2c0,0-5.4,6.2-21.9,6.6
			c-13.7,0.4-33.9-2.8-33.9-2.8s-35-4.9-43.1-5.8s-25.9-2.8-37.7-2.3C21.4,33.8,13.3,34,7.2,35.6"/>
	</g>
</g>
<g>
	<g>
		<g>
			<path class="st3" d="M16.9,23.1c-1.5,1.3-3.5,1.8-5.9,1.8c-2.5,0-5.1-0.8-6.9-2.5c-1.5-1.5-1.9-3.7-1.9-5.8c0,0,3.2,0,5,0
				c0.6,0,1.1,0.4,1.2,1c0.1,0.8,0.4,1.5,1.1,1.9c1.1,0.8,2.9,0.4,3.5-0.8c0.5-0.9,0.1-2.2-0.7-2.9c-0.5-0.5-1.1-0.8-1.8-1
				s-1.3-0.5-2-0.8C6.3,13.1,3.9,11.5,3,9.2C2.7,8.5,2.5,7.8,2.5,7c0-2.7,1.7-4.7,4-5.9c0.7-0.4,1.4-0.7,2.1-0.8
				C9.9,0,11.2,0,12.5,0.2C13.7,0.4,15,0.9,16,1.6c1.1,0.7,1.9,1.8,2.4,3c0,0.1,0.1,0.2,0.1,0.3c0.2,0.5,0.3,1,0.4,1.5
				C19,6.3,19,6.7,19,7s-0.2,0.6-0.5,0.6c-1.1,0-3.2,0-4.5,0c-0.5,0-1-0.4-1.2-0.9c-0.2-0.6-0.5-1.1-1.1-1.3C11,5,9.9,5.1,9.2,5.7
				C8.6,6.3,8.6,7.3,9,8c0.4,0.8,1.4,1.3,2.2,1.6c1.5,0.6,3.1,1.2,4.5,2.1c1.1,0.6,2,1.5,2.7,2.5c0.6,0.9,0.9,2,0.9,3.1
				C19.4,19.8,18.5,21.8,16.9,23.1z"/>
			<path class="st3" d="M22.2,4.6V2.4c0-1.1,0.9-2,2-2h3.4v2.1c0,1.1-0.9,2-1.9,2L22.2,4.6L22.2,4.6z M22.2,24.6V8.5
				c0-1.1,0.9-2,2-2h3.4v16.1c0,1.1-0.9,2-2,2H22.2L22.2,24.6z"/>
			<path class="st3" d="M49.2,16.7c0,0.3-0.3,0.5-0.5,0.5H35.6l0,0c0.4,2.2,1.7,3.3,4.2,3.3c1.2,0,2.3-0.5,3.2-1.5
				c0.1-0.1,0.3-0.1,0.4-0.2h4.4c0.4,0,0.7,0.4,0.5,0.8c-1.7,3.3-5.2,5.7-9,5.5C37,25,34.7,24,33,22.4c-1.8-1.8-2.8-4.1-2.8-6.8
				c0-2.6,0.9-4.8,2.8-6.8c2.4-2.7,6.4-3.6,9.8-2.4c2.5,0.9,4.5,2.9,5.6,5.3C49.1,13.2,49.3,15,49.2,16.7z M43.6,13.4
				c0.3,0.5-0.3-1.1-0.4-1.2c-0.2-0.4-0.5-0.7-0.9-1c-1.7-1.3-4.7-1.1-6,0.6c-0.2,0.2-0.3,0.5-0.5,0.8c0,0.1-0.3,1-0.3,1
				C39.3,13.4,39.9,13.4,43.6,13.4z"/>
			<path class="st3" d="M63.7,24.8v-2l0,0c-0.4,0.9-1.1,1.7-1.8,2s-1.7,0.6-2.8,0.6c-2.2,0-4.1-0.7-5.3-2.2
				c-0.7-0.9-1.1-1.7-1.3-2.6c-0.2-0.7-0.2-1.7-0.2-3v-9c0-1.2,1-2.2,2.2-2.2h3.2v10c0,1.1,0.2,2,0.6,2.6c0.4,0.7,1.3,1.1,2.4,1.1
				c2,0,3.1-1.3,3.1-3.7v-8c0-1.1,0.9-2,2-2H69v16.2c0,1.2-0.9,2.1-2.1,2.1L63.7,24.8L63.7,24.8z"/>
			<path class="st3" d="M82.6,10.5v12.1c0,1.1-0.9,2-1.9,2h-3.4v-14h-2.6V8.4c0-1.1,0.9-2,1.9-2h0.6V2.3c0-1.1,0.9-2,1.9-2h3.4v6.1
				h2.6v2.1c0,1.1-0.9,2-1.9,2H82.6L82.6,10.5z"/>
			<path class="st3" d="M99.8,24.6v-9.8c0-0.9-0.1-2-0.7-2.8c-0.6-0.7-1.4-0.9-2.2-0.9c-0.8,0-1.6,0.2-2.2,0.8
				c-0.7,0.7-0.8,1.8-0.8,2.7v8c0,1.1-0.9,2-2,2h-3.4v-22c0-1.1,0.9-2,2-2h3.4v7.8c0.4-0.7,1.1-1.5,2-1.8C96.6,6.2,97.6,6,98.5,6
				c1.7,0,3.5,0.6,4.7,1.8c1.5,1.4,1.9,3.3,1.9,5.3c0,0.2,0,0.5,0,0.7v8.9c0,1.1-0.9,2-2,2h-3.3V24.6z"/>
			<path class="st3" d="M108.1,4.6V2.4c0-1.1,0.9-2,2-2h3.3v2.1c0,1.1-0.9,2-2,2L108.1,4.6L108.1,4.6z M108.1,24.6V8.5
				c0-1.1,0.9-2,2-2h3.3v16.1c0,1.1-0.9,2-2,2H108.1L108.1,24.6z"/>
			<path class="st3" d="M141,24.6V15c0-1.6,0-3.6-1.9-4c-1-0.2-2,0-2.8,0.6c-0.9,0.7-1,2-1,3v7.7c0,1.2-1,2.1-2.1,2.1H130v-9.6
				c0-1.7-0.5-3.5-2.4-3.7c-1-0.1-2,0.2-2.6,1.1c-0.6,0.9-0.6,2-0.6,3v7.5c0,1.2-1,2.1-2.1,2.1h-3.2V8.6c0-1.2,1-2.1,2.1-2.1h2.9
				v1.8c1.4-2.4,4.6-2.9,6.9-2.2c2.1,0.7,2.7,2.2,2.7,2.2s1.5-2.8,6.2-2.6c2,0.1,3.5,0.6,4.8,1.8c0.9,1.1,1.5,2,1.7,3.3
				c0.3,2.2,0.2,4.3,0.2,6.5v5c0,1.2-1,2.1-2.1,2.1H141V24.6z"/>
			<path class="st3" d="M163.2,24.6v-2c-0.4,0.9-1.3,1.5-2.2,2c-1,0.6-2.3,0.7-3.4,0.6c-3.8-0.2-7.1-2.8-8.2-6.4
				c-0.1-0.2-0.1-0.4-0.2-0.6c-0.8-3.4-0.2-6.9,2.1-9.5c1.7-1.8,3.9-2.8,6.6-2.8c1.1,0,2.3,0.2,3.3,0.7c0.8,0.4,1.4,0.9,1.8,1.7l0,0
				c0-1,0.8-1.8,1.8-1.8h3.5v16.3c0,1-0.8,1.8-1.8,1.8C166.5,24.6,163.2,24.6,163.2,24.6z M161.8,12.2c-0.1-0.2-0.3-0.3-0.5-0.4
				c-0.8-0.7-1.8-0.9-2.8-0.9c-1.6,0-3,0.8-3.8,2.2c-0.8,1.3-0.9,3.2-0.1,4.5c1.4,2.6,5.2,3.1,7.3,1C163.6,16.9,163.5,14,161.8,12.2
				z"/>
			<path class="st3" d="M179.1,30.5h-4.3l2.8-6.8L171,6.5h4.3c0.9,0,1.6,0.5,1.9,1.3l3.2,9.2l0,0l3-9.1c0.3-0.9,1.1-1.4,2-1.4h4.2
				L181,29.1C180.7,30,179.9,30.5,179.1,30.5z"/>
			<path class="st3" d="M193.9,24.6V2.7c0-1.2,0.9-2.1,2.1-2.1h3.2v21.9c0,1.2-0.9,2.1-2.1,2.1H193.9L193.9,24.6z"/>
			<path class="st3" d="M216.5,24.6v-2c0,0.4-0.7,1-1,1.2c-1.2,1-2.6,1.4-4.2,1.4c-2.8,0-5-0.9-6.6-2.8c-1.7-1.8-2.4-4.1-2.4-6.8
				s0.7-5,2.4-6.8s3.9-2.8,6.6-2.8c1.1,0,2,0.2,2.9,0.6c1.1,0.4,1.8,1.1,2.2,1.8l0,0c0-1,0.8-1.8,1.8-1.8h3.5v16.3
				c0,1-0.8,1.8-1.8,1.8L216.5,24.6z M215.2,12.2c-1.5-1.5-4.3-1.8-6-0.4c-1.7,1.3-2.3,4.2-1.2,6.1c0.8,1.3,2.3,2.1,3.8,2.1
				s3-0.7,3.9-2C216.9,16.2,216.7,13.7,215.2,12.2z"/>
			<path class="st3" d="M236.8,24.5v-9.9c0-1.1-0.2-2-0.6-2.6c-0.4-0.7-1.1-1.1-2.4-1.1c-1.1,0-2,0.4-2.6,1.1
				c-0.4,0.6-0.6,1.5-0.6,2.8v7.8c0,1.1-0.9,2-2,2h-3.3V8.5c0-1.1,0.9-2,2-2h2.9v1.8l0,0c1.1-1.7,2.6-2.6,5-2.6
				c1.8,0,3.3,0.6,4.6,1.7c0.7,0.7,1.3,1.5,1.7,2.6c0.2,0.9,0.4,1.8,0.4,3.1v9.4c0,1.1-0.9,2-2,2H236.8L236.8,24.5z"/>
			<path class="st3" d="M256.7,24.6v-9.9c0-1.1-0.2-2-0.6-2.6c-0.6-0.7-1.3-1.1-2.4-1.1s-1.8,0.4-2.4,1.1c-0.4,0.6-0.6,1.5-0.6,2.6
				v8c0,1.1-0.9,2-2,2h-3.3v-22c0-1.1,0.9-2,2-2h3.3v7.8l0,0c0.4-0.7,1.1-1.5,2-1.8c0.7-0.4,1.7-0.6,2.6-0.6c2.2,0,3.7,0.7,5,2
				c0.7,0.9,1.3,1.8,1.5,3.1c0.2,0.6,0.2,1.1,0.2,1.7c0,0.2,0,0.6,0,0.9v8.8c0,1.1-0.9,2-2,2H256.7L256.7,24.6z"/>
		</g>
	</g>
</g>
<g>
	<g>
		<g>
			<path class="st4" d="M181.9,46.4c-0.3,0.2-0.5,0.4-0.9,0.6c-0.8,0.3-1.6,0.3-2.5,0.2s-1.7-0.4-2.4-1c-0.4-0.4-0.7-0.8-0.8-1.3
				c-0.1-0.2-0.2-0.5-0.2-0.8c0-0.1-0.1-0.6-0.1-0.6h2.8c0,0,0,0.6,0,0.7c0.2,0.5,0.8,0.8,1.3,0.7s0.8-0.6,0.7-1.1s-0.6-0.8-1-1.1
				c-0.3-0.1-0.6-0.3-0.8-0.4c-0.7-0.3-1.3-0.7-1.9-1.2c-0.8-0.6-1-1.4-1-2.4c0-1.3,1-2.3,2.3-2.8c0.8-0.3,1.7-0.3,2.5-0.1
				c0.3,0.1,0.5,0.2,0.8,0.3c1,0.5,1.8,1.5,2,2.7v0.5c-0.1,0-2.8,0-2.8,0c-0.1-0.6-0.5-1.1-1.1-1.1c-0.3,0-0.5,0.1-0.7,0.3
				s-0.2,0.6-0.1,0.8c0.1,0.5,0.7,0.7,1.1,0.9c1,0.5,1.9,0.9,2.8,1.6c0.6,0.6,1,1.4,1,2.2C182.9,44.9,182.6,45.8,181.9,46.4z"/>
			<path class="st4" d="M185,47.2V36.9c0-0.5,0.4-0.8,0.8-0.8h2v10.4c0,0.5-0.4,0.8-0.8,0.8L185,47.2L185,47.2z"/>
			<path class="st4" d="M197,47.2l-4.2-6.8l0,0v6c0,0.4-0.4,0.8-0.8,0.8h-2V36.8c0-0.4,0.4-0.8,0.8-0.8h1.6l4.2,7l0,0l-0.2-6.2
				c0-0.5,0.3-0.8,0.8-0.8h2v11.2H197L197,47.2z"/>
			<path class="st4" d="M212.4,43c0,0.2-0.1,0.4-0.1,0.5c-0.2,0.9-0.7,1.7-1.4,2.3c-0.1,0.1-0.3,0.2-0.4,0.4c-1,0.8-2.2,1.2-3.6,1.2
				c-1.4,0-2.8-0.5-3.9-1.4c-1.7-1.3-2.4-3.5-1.9-5.6c0.1-0.4,0.2-0.8,0.4-1.2c0.4-0.8,1.3-1.8,2.1-2.3c0.9-0.5,2-0.8,3.1-0.8
				c1.9,0,3.7,0.7,4.7,2.4c0,0.1,0.1,0.1,0.1,0.2c0.2,0.3,0.7,1.5,0.8,1.8c-0.2,0-1.7,0-2.5,0c-0.6,0-0.7-0.7-1.1-1.1
				c-0.4-0.5-1.1-0.9-1.8-0.9c-0.9-0.1-2,0.4-2.5,1.2c-0.8,1.1-0.9,2.8-0.1,3.9c0.7,1,1.9,1.5,3.1,1.3c0.6-0.1,1.2-0.4,1.6-0.8
				c0.3-0.2,0.4-0.5,0.5-0.6c0.1-0.2,0.3-0.3,0.6-0.3L212.4,43z"/>
			<path class="st4" d="M214.5,47.2v-9.9c0-0.7,0.6-1.3,1.3-1.3h5.5v1.5c0,0.5-0.4,0.9-0.9,0.9h-3.1v1.8h4v1.5
				c0,0.5-0.4,0.9-0.9,0.9h-3.1v2h4v1.6c0,0.5-0.4,0.8-0.8,0.9L214.5,47.2L214.5,47.2z"/>
		</g>
	</g>
	<g>
		<path class="st4" d="M233.6,42.1c0.6-0.7,1-1.4,1.1-2.4c0.1-0.9-0.1-1.8-0.5-2.6c-0.1-0.2-0.3-0.4-0.5-0.6
			c-1.1-1.1-2.9-1.4-4.3-0.8c-1.5,0.6-2.2,2.1-2.2,3.7c0,0.1,0,0.2,0.1,0.4c0.1,0.1,0.3,0.1,0.3,0.1h1.7c0.1,0,0.3,0,0.4-0.1
			c0.1-0.2,0.1-0.4,0.1-0.6c0-0.3,0.2-0.7,0.4-0.9c0.4-0.4,1.3-0.5,1.7,0s0.4,1.3,0.1,1.8c-0.1,0.2-0.3,0.4-0.4,0.6
			c-0.1,0.1-0.2,0.2-0.3,0.3l-0.2,0.2l-3.8,3.7v1.7c0,0.1,0,0.2,0.2,0.3c0.1,0.1,0.2,0.1,0.2,0.1h7v-1.8c0-0.3-0.3-0.6-0.6-0.6H231
			c0.3-0.3,0.7-0.7,1-1C232.4,43.3,233.1,42.7,233.6,42.1z"/>
		<path class="st4" d="M260.9,42.1c0.6-0.7,1-1.4,1.1-2.4c0.1-0.9-0.1-1.8-0.5-2.6c-0.1-0.2-0.3-0.4-0.5-0.6
			c-1.1-1.1-2.9-1.4-4.3-0.8c-1.5,0.6-2.2,2.1-2.2,3.7c0,0.1,0,0.2,0.1,0.4c0.1,0.1,0.3,0.1,0.3,0.1h1.7c0.1,0,0.3,0,0.4-0.1
			c0.1-0.2,0.1-0.4,0.1-0.6c0-0.3,0.2-0.7,0.4-0.9c0.4-0.4,1.3-0.5,1.7,0c0.4,0.5,0.4,1.3,0.1,1.8c-0.1,0.2-0.3,0.4-0.4,0.6
			c-0.1,0.1-0.2,0.2-0.3,0.3l-0.2,0.2l-3.8,3.7v1.7c0,0.1,0,0.2,0.2,0.3C254.9,47,255,47,255,47h7v-1.8c0-0.3-0.3-0.6-0.6-0.6h-3.1
			c0.3-0.3,0.7-0.7,1-1C259.8,43.3,260.4,42.7,260.9,42.1z"/>
		<path class="st4" d="M243,36.6c-0.4-0.4-0.8-0.7-1.3-0.8c-1-0.4-2.3-0.4-3.3,0c-0.5,0.2-1,0.5-1.3,0.8c-0.4,0.4-0.7,0.8-0.9,1.3
			s-0.3,1.1-0.3,1.7v3.5c0,0.6,0.1,1.2,0.3,1.7s0.5,1,0.9,1.3c0.4,0.4,0.8,0.7,1.3,0.8c0.5,0.2,1.1,0.3,1.7,0.3s1.2-0.1,1.7-0.3
			s1-0.5,1.3-0.8c0.4-0.4,0.7-0.8,0.9-1.3s0.3-1.1,0.3-1.7v-3.5c0-0.6-0.1-1.2-0.3-1.7C243.7,37.4,243.4,37,243,36.6z M241.6,39.7
			v3.5c0,0.6-0.1,1-0.4,1.3c-0.3,0.3-0.7,0.4-1.2,0.4s-0.9-0.1-1.2-0.4c-0.3-0.3-0.4-0.7-0.4-1.3v-3.5c0-0.6,0.1-1,0.4-1.3
			c0.3-0.3,0.7-0.4,1.2-0.4s0.9,0.1,1.2,0.4C241.5,38.7,241.6,39.1,241.6,39.7z"/>
		<path class="st4" d="M252.5,36.6c-0.4-0.4-0.8-0.7-1.3-0.8c-1-0.4-2.3-0.4-3.3,0c-0.5,0.2-1,0.5-1.3,0.8c-0.4,0.4-0.7,0.8-0.9,1.3
			s-0.3,1.1-0.3,1.7v3.5c0,0.6,0.1,1.2,0.3,1.7s0.5,1,0.9,1.3c0.4,0.4,0.8,0.7,1.3,0.8c0.5,0.2,1.1,0.3,1.7,0.3s1.2-0.1,1.7-0.3
			s1-0.5,1.3-0.8c0.4-0.4,0.7-0.8,0.9-1.3s0.3-1.1,0.3-1.7v-3.5c0-0.6-0.1-1.2-0.3-1.7C253.2,37.4,252.9,37,252.5,36.6z M251.1,39.7
			v3.5c0,0.6-0.1,1-0.4,1.3c-0.3,0.3-0.7,0.4-1.2,0.4s-0.9-0.1-1.2-0.4c-0.3-0.3-0.4-0.7-0.4-1.3v-3.5c0-0.6,0.1-1,0.4-1.3
			c0.3-0.3,0.7-0.4,1.2-0.4s0.9,0.1,1.2,0.4C251,38.7,251.1,39.1,251.1,39.7z"/>
	</g>
</g>
</svg>
